<?xml version="1.0" encoding="utf-8"?>
<!-- Generator: Adobe Illustrator 19.0.0, SVG Export Plug-In . SVG Version: 6.00 Build 0)  -->
<svg version="1.1" id="Layer_1" xmlns="http://www.w3.org/2000/svg" xmlns:xlink="http://www.w3.org/1999/xlink" x="0px" y="0px"
	 viewBox="0 0 365.5 186.8" style="enable-background:new 0 0 365.5 186.8;" xml:space="preserve">
<style type="text/css">
	.st0{fill-rule:evenodd;clip-rule:evenodd;}
	.st1{fill-rule:evenodd;clip-rule:evenodd;fill:#FFFFFF;}
	.st2{fill-rule:evenodd;clip-rule:evenodd;fill:#CB1A20;}
</style>
<g>
	<path class="st0" d="M180.1,49.3c-1.2-1.4-1.9-3.3-1.9-5.5c0.1-3.1,2.1-6.6,3.7-9.3c1.6-2.6,3.2-5.3,5.2-7.6
		c2.6-2.9,5.9-5.9,9.8-6.6c4.9-0.9,8.8,2.3,8.9,7.3c0.1,2.6-0.6,5.2-1.7,7.6c-1,2.4-2.4,4.7-4,6.9c-1.6,2.2-3.4,4.2-5.5,5.9
		c-2.1,1.7-4.4,3.1-7.1,3.6c0.8,1,1.3,2.2,1.4,3.6c0.3,2.8-0.9,5.5-2.3,7.8c-3,5.3-6,10.6-8.9,15.9c-1.4,2.6-2.7,5.2-4,7.9
		c0.4-0.4,0.9-0.8,1.3-1.3c3-3,5.9-6.1,8.7-9.4c1.8-3.4,4-6.5,6.3-9.5c5-6.5,10.7-12.5,17.1-17.7c5.2-4.3,11.6-8.5,18.3-9.8
		c3.6-0.7,7.4-0.1,10,2.7c1.4,1.5,2.2,3.3,2.6,5.2c5.1-8.8,14.9-19.5,24.2-21c4.4-0.7,8.5,0.2,11.5,3.3c1.5-2.7,2.9-5.5,4.2-8.3
		c0.9-1.9,1.7-3.9,2.7-5.7l0.5-0.8l0.7-0.6c1.6-1.5,3.5-2.6,5.7-3c3.9-0.7,7.5,1.4,8.3,5.4l0.5,1.1l-0.5,2c-0.3,1.1-0.5,2.2-0.9,3.3
		c2.1-0.9,4.3-1.7,6.5-1.9c4.3-0.5,8.7,0.2,11.4,3.9c0.5,0.6,0.9,1.3,1.1,2.1c2.6,6.5-1.9,15.5-5.1,21.2c-0.9,1.6-2,3.4-3.2,5.2
		c0.5-0.5,1-1.1,1.4-1.6c0.5-0.6,1-1.2,1.5-1.8c2.1-2.1,5-3.2,7.8-1.8c2.4,1.2,3.4,3.5,3.4,6.1c0,1.2-0.2,2.3-0.3,3.5
		c-1.3,9.3-14.8,18.5-22,23.6c-3.1,2.2-6.3,4.2-9.7,5.7c-5.8,2.6-12.8,4.2-18.4,0.2c-1.7-1.2-3-2.7-4-4.5c-1.9,3.5-3.7,7.1-5.3,10.8
		c-0.3,0.6-0.5,1.3-0.8,1.9c-0.4,1-0.8,1.9-1.3,2.8c-2.3,5-5.9,10.5-11.8,11.6c-4.3,0.8-8.2-1.9-8.3-6.4l0-0.5l0.1-0.5
		c0.3-2.3,1.2-4.7,2.2-6.9c-5.8,4.7-12,8.9-18.6,12.5c-0.7,5.7-1.5,11.4-3,17c-1.8,7-4.9,13.6-8.8,19.6c-4.1,6.2-9.4,11.4-15.7,15.3
		c-3,1.8-6.2,3.4-9.7,4c-4.3,0.8-8.5,0.2-12.2-2.1c-3.6-2.2-6-5.5-7.3-9.5c-1.3-4-1.3-8.2-0.3-12.2c2.4-9.4,8.5-17.3,15.4-23.9
		c4-3.8,8.6-6.9,13.3-10c3.5-2.3,7-4.5,10.5-6.8c-2.7,1.3-5.4,2.3-8.3,2.8c-4.4,0.8-8.9,0.3-12.2-2.7c-5.3,5.2-12.6,11.3-19.9,12.6
		c-3.1,0.6-6.3,0.2-8.8-1.9c-0.5-0.4-0.9-0.9-1.3-1.4c-2.9,2.2-6.2,4.1-9.7,4.8c-4.5,0.8-8.8-0.4-11.4-4.4c-1.9-3-2.6-6.7-2.6-10.2
		c0-3.4,0.2-6.7,0.7-10.1c0.1-0.9,0.3-1.7,0.4-2.6c-0.6,0.8-1.2,1.6-1.8,2.3c-4.2,5.7-7.9,11.7-11.3,17.9
		c-1.9,3.4-5.3,10.1-8.7,11.9l-0.8,0.4l-0.6,0.1c-3.2,0.6-6.4,0.2-8.3-2.8c-1.5-2.2-1.7-4.8-1-7.3c0.3-1.1,0.8-2.1,1.2-3.1
		c0.7-1.7,1.5-3.3,2.3-5c0.7-1.6,1.5-3.2,2.2-4.8c0.3-0.6,0.6-1.2,0.8-1.8c0.6-1.8,1.3-3.7,1.9-5.5c-0.2,0.3-0.4,0.5-0.6,0.8
		c-2.4,3.1-4.7,6.3-6.9,9.5c-2.5,3.6-4.8,7.3-7.1,11c-1.6,2.7-3.2,5.4-4.7,8.2c-2,4-4.6,9-9.4,9.9c-3.7,0.7-6.9-1.4-8.3-4.7
		c-0.4,0.5-0.7,0.9-1.1,1.4c-2.4,2.7-5.2,5.1-8.8,5.8c-3.6,0.7-7.2-0.7-8.8-4.2c-1.1-2.4-1.1-5.1-0.3-7.6l0.3-0.9l0.5-0.8
		c4.4-6.4,9-12.7,13.3-19.2c3.8-5.8,7.2-11.9,10-18.3c4-9,7.3-18.4,10.2-27.8c1.5-5,2.9-10,3.9-15.2c1.3-6.6,2-13.5,1.3-20.2
		l-0.1-1.1l0.3-1.1c1-3.3,2.8-6.3,5.7-8.2c2.8-1.8,6-2.6,9.3-1.6c3.9,1.1,6.2,4.3,6.5,8.3c0.2,2.1-0.1,4.3-0.5,6.4
		c-1.9,10.6-3.9,21.2-7,31.6c-3,10.3-6.8,20.3-11.2,30c5.5-6.9,12.7-14.7,18.4-16.8c3.6-1.2,7.4-1.5,10.7,0.6c1.3,0.9,2.4,2,3.2,3.3
		c1.9-2.1,3.9-4,6-5.9c2.3-2,5.2-4.1,8.3-4.6c5.6-1,10.1,2.1,10.7,7.8c0.4,3.6,0.2,7.4-0.4,11c-0.5,3.4-1.1,6.8-1.6,10.2
		c-0.3,1.9-0.6,3.9-0.6,5.9c0.1-0.1,0.2-0.2,0.2-0.3c2.7-3,5-6.5,7.2-9.9c4.4-6.8,8.8-13.5,13-20.4c0.4-0.6,0.7-1.2,1.1-1.9
		c0.5-0.9,1-1.9,1.6-2.8c0.6-1,1.3-1.9,2.1-2.7c0.7-0.8,1.5-1.7,2.4-2.4C177,50.8,178.5,49.8,180.1,49.3L180.1,49.3z M294.5,63.5
		c-1.1,0.3-2.2,0.5-3.3,0.5c-5.5,0-8.2-4.3-8.7-9c-0.1,0.1-0.2,0.2-0.3,0.4c0.6,2.5,0,5.2-0.4,7.7c-0.4,2.3-0.8,4.6-0.9,6.9
		c0,0.7-0.1,1.7-0.1,2.6c0.3-0.1,0.6-0.3,0.8-0.4c0.9-0.5,1.9-1,2.8-1.5c2.5-1.5,4.8-3.2,7.1-4.9C292.5,65,293.5,64.3,294.5,63.5
		L294.5,63.5z M235.6,65.1c-0.8,2.1-1.8,4.2-2.9,6.2c-1.7,3.3-3.5,6.6-5.4,9.8c-0.6,1.1-1.4,2.2-1.8,3.4c-0.1,0.3-0.2,0.7-0.3,1
		c2.5-1.9,4.9-3.8,7.2-5.8c4-3.5,7.6-7.2,11.1-11.2c-3,0.3-5.9-0.5-7.9-3.3C235.6,65.3,235.6,65.2,235.6,65.1L235.6,65.1z
		 M256.8,53.2c0.5-0.3,1-0.6,1.6-0.9c1-2.1,1.6-5,1.8-7.6c-2,1.5-3.9,3.8-5.4,5.9C255.8,51.3,256.4,52.2,256.8,53.2L256.8,53.2z
		 M294.3,42.2C294.3,42.2,294.3,42.2,294.3,42.2c0.1,0,0.1-0.1,0.2-0.2C294.4,42.1,294.3,42.1,294.3,42.2L294.3,42.2z M203.5,117.9
		c-4,2.3-7.9,4.7-11.2,7.8c-4.5,4.2-9.5,9.9-11.1,16c-0.2,0.6-0.3,1.3-0.3,1.9c0,0.3,0,1.1,0.1,1.3c0,0,0,0,0,0
		c1,0.5,3.1-0.1,4.1-0.4c1.3-0.4,2.7-1.1,3.9-1.8c5.1-3.1,8.8-9.6,11.1-15C201.5,124.7,202.6,121.3,203.5,117.9L203.5,117.9z
		 M209.7,76.3c3.3-5.7,7.1-11.4,9.8-17.5c-0.1,0-0.1,0.1-0.2,0.1c-4.6,3.3-9,6.9-12.4,11.4c-2.6,3.4-4.8,7.2-7.2,10.8
		c-0.7,1-1.2,2.2-1.6,3.3C202.2,83.1,206.8,79.1,209.7,76.3z"/>
	<path class="st1" d="M177.2,45.4c-1.2-1.4-1.9-3.3-1.9-5.5c0.1-3.1,2.1-6.6,3.7-9.3c1.6-2.6,3.2-5.3,5.2-7.6
		c2.6-2.9,5.9-5.9,9.8-6.6c4.9-0.9,8.8,2.3,8.9,7.3c0.1,2.6-0.6,5.2-1.7,7.6c-1,2.4-2.4,4.7-4,6.9c-1.6,2.2-3.4,4.2-5.5,5.9
		c-2.1,1.7-4.4,3.1-7.1,3.6c0.8,1,1.3,2.2,1.4,3.6c0.3,2.8-0.9,5.5-2.3,7.8c-3,5.3-6,10.6-8.9,15.9c-1.4,2.6-2.7,5.2-4,7.9
		c0.4-0.4,0.9-0.8,1.3-1.3c3-3,5.9-6.1,8.7-9.4c1.8-3.4,4-6.5,6.3-9.5c5-6.5,10.7-12.5,17.1-17.7c5.2-4.3,11.6-8.5,18.3-9.8
		c3.6-0.7,7.4-0.1,10,2.7c1.4,1.5,2.2,3.3,2.6,5.2c5.1-8.8,14.9-19.5,24.2-21c4.4-0.7,8.5,0.2,11.5,3.3c1.5-2.7,2.9-5.5,4.2-8.3
		c0.9-1.9,1.7-3.9,2.7-5.7l0.5-0.8l0.7-0.6c1.6-1.5,3.5-2.6,5.7-3c3.9-0.7,7.5,1.4,8.3,5.4l0.5,1.1l-0.5,2c-0.3,1.1-0.5,2.2-0.9,3.3
		c2.1-0.9,4.3-1.7,6.5-1.9c4.3-0.5,8.7,0.2,11.4,3.9c0.5,0.6,0.9,1.3,1.1,2.1c2.6,6.5-1.9,15.5-5.1,21.2c-0.9,1.6-2,3.4-3.2,5.2
		c0.5-0.5,1-1.1,1.4-1.6c0.5-0.6,1-1.2,1.5-1.8c2.1-2.1,5-3.2,7.8-1.8c2.4,1.2,3.4,3.5,3.4,6.1c0,1.2-0.2,2.3-0.3,3.5
		c-1.3,9.3-14.8,18.5-22,23.6c-3.1,2.2-6.3,4.2-9.7,5.7c-5.8,2.6-12.8,4.2-18.4,0.2c-1.7-1.2-3-2.7-4-4.5c-1.9,3.5-3.7,7.1-5.3,10.8
		c-0.3,0.6-0.5,1.3-0.8,1.9c-0.4,1-0.8,1.9-1.3,2.8c-2.3,5-5.9,10.5-11.8,11.6c-4.3,0.8-8.2-1.9-8.3-6.4l0-0.5l0.1-0.5
		c0.3-2.3,1.2-4.7,2.2-6.9c-5.8,4.7-12,8.9-18.6,12.5c-0.7,5.7-1.5,11.4-3,17c-1.8,7-4.9,13.6-8.8,19.6c-4.1,6.2-9.4,11.4-15.7,15.3
		c-3,1.8-6.2,3.4-9.7,4c-4.3,0.8-8.5,0.2-12.2-2.1c-3.6-2.2-6-5.5-7.3-9.5c-1.3-4-1.3-8.2-0.3-12.2c2.4-9.4,8.5-17.3,15.4-23.9
		c4-3.8,8.6-6.9,13.3-10c3.5-2.3,7-4.5,10.5-6.8c-2.7,1.3-5.4,2.3-8.3,2.8c-4.4,0.8-8.9,0.3-12.2-2.7c-5.3,5.2-12.6,11.3-19.9,12.6
		c-3.1,0.6-6.3,0.2-8.8-1.9c-0.5-0.4-0.9-0.9-1.3-1.4c-2.9,2.2-6.2,4.1-9.7,4.8c-4.5,0.8-8.8-0.4-11.4-4.4c-1.9-3-2.6-6.7-2.6-10.2
		c0-3.4,0.2-6.7,0.7-10.1c0.1-0.9,0.3-1.7,0.4-2.6c-0.6,0.8-1.2,1.6-1.8,2.3c-4.2,5.7-7.9,11.7-11.3,17.9
		c-1.9,3.4-5.3,10.1-8.7,11.9l-0.8,0.4L105,115c-3.2,0.6-6.4,0.2-8.3-2.8c-1.5-2.2-1.7-4.8-1-7.3c0.3-1.1,0.8-2.1,1.2-3.1
		c0.7-1.7,1.5-3.3,2.3-5c0.7-1.6,1.5-3.2,2.2-4.8c0.3-0.6,0.6-1.2,0.8-1.8c0.6-1.8,1.3-3.7,1.9-5.5c-0.2,0.3-0.4,0.5-0.6,0.8
		c-2.4,3.1-4.7,6.3-6.9,9.5c-2.5,3.6-4.8,7.3-7.1,11c-1.6,2.7-3.2,5.4-4.7,8.2c-2,4-4.6,9-9.4,9.9c-3.7,0.7-6.9-1.4-8.3-4.7
		c-0.4,0.5-0.7,0.9-1.1,1.4c-2.4,2.7-5.2,5.1-8.8,5.8c-3.6,0.7-7.2-0.7-8.8-4.2c-1.1-2.4-1.1-5.1-0.3-7.6l0.3-0.9l0.5-0.8
		c4.4-6.4,9-12.7,13.3-19.2c3.8-5.8,7.2-11.9,10-18.3c4-9,7.3-18.4,10.2-27.8c1.5-5,2.9-10,3.9-15.2c1.3-6.6,2-13.5,1.3-20.2
		l-0.1-1.1l0.3-1.1c1-3.3,2.8-6.3,5.7-8.2c2.8-1.8,6-2.6,9.3-1.6c3.9,1.1,6.2,4.3,6.5,8.3c0.2,2.1-0.1,4.3-0.5,6.4
		c-1.9,10.6-3.9,21.2-7,31.6c-3,10.3-6.8,20.3-11.2,30c5.5-6.9,12.7-14.7,18.4-16.8c3.6-1.2,7.4-1.5,10.7,0.6c1.3,0.9,2.4,2,3.2,3.3
		c1.9-2.1,3.9-4,6-5.9c2.3-2,5.2-4.1,8.3-4.6c5.6-1,10.1,2.1,10.7,7.8c0.4,3.6,0.2,7.4-0.4,11c-0.5,3.4-1.1,6.8-1.6,10.2
		c-0.3,1.9-0.6,3.9-0.6,5.9c0.1-0.1,0.2-0.2,0.2-0.3c2.7-3,5-6.5,7.2-9.9c4.4-6.8,8.8-13.5,13-20.4c0.4-0.6,0.7-1.2,1.1-1.9
		c0.5-0.9,1-1.9,1.6-2.8c0.6-1,1.3-1.9,2.1-2.7c0.7-0.8,1.5-1.7,2.4-2.4C174.1,46.8,175.6,45.8,177.2,45.4L177.2,45.4z M291.6,59.5
		c-1.1,0.3-2.2,0.5-3.3,0.5c-5.5,0-8.2-4.3-8.7-9c-0.1,0.1-0.2,0.2-0.3,0.4c0.6,2.5,0,5.2-0.4,7.7c-0.4,2.3-0.8,4.6-0.9,6.9
		c0,0.7-0.1,1.7-0.1,2.6c0.3-0.1,0.6-0.3,0.8-0.4c0.9-0.5,1.9-1,2.8-1.5c2.5-1.5,4.8-3.2,7.1-4.9C289.6,61,290.6,60.3,291.6,59.5
		L291.6,59.5z M232.7,61.2c-0.8,2.1-1.8,4.2-2.9,6.2c-1.7,3.3-3.5,6.6-5.4,9.8c-0.6,1.1-1.4,2.2-1.8,3.4c-0.1,0.3-0.2,0.7-0.3,1
		c2.5-1.9,4.9-3.8,7.2-5.8c4-3.5,7.6-7.2,11.1-11.2c-3,0.3-5.9-0.5-7.9-3.3C232.7,61.3,232.7,61.2,232.7,61.2L232.7,61.2z M254,49.3
		c0.5-0.3,1-0.6,1.6-0.9c1-2.1,1.6-5,1.8-7.6c-2,1.5-3.9,3.8-5.4,5.9C252.9,47.3,253.5,48.2,254,49.3L254,49.3z M291.4,38.2
		C291.4,38.2,291.4,38.2,291.4,38.2c0.1,0,0.1-0.1,0.2-0.2C291.5,38.1,291.4,38.1,291.4,38.2L291.4,38.2z M200.6,113.9
		c-4,2.3-7.9,4.7-11.2,7.8c-4.5,4.2-9.5,9.9-11.1,16c-0.2,0.6-0.3,1.3-0.3,1.9c0,0.3,0,1.1,0.1,1.3c0,0,0,0,0,0
		c1,0.5,3.1-0.1,4.1-0.4c1.3-0.4,2.7-1.1,3.9-1.8c5.1-3.1,8.8-9.6,11.1-15C198.6,120.7,199.7,117.3,200.6,113.9L200.6,113.9z
		 M206.8,72.3c3.3-5.7,7.1-11.4,9.8-17.5c-0.1,0-0.1,0.1-0.2,0.1c-4.6,3.3-9,6.9-12.4,11.4c-2.6,3.4-4.8,7.2-7.2,10.8
		c-0.7,1-1.2,2.2-1.6,3.3C199.3,79.1,203.9,75.1,206.8,72.3z"/>
	<path class="st2" d="M73.9,100.3l0.1,0l-5.2,8.4c-1.9,3.1-4,6.4-6.4,9.1c-1.6,1.8-3.6,3.6-6.1,4.1c-1.5,0.3-2.9-0.1-3.6-1.5
		c-0.6-1.3-0.5-2.8-0.1-4.1l0-0.1l0.1-0.1c4.4-6.2,9.1-12.3,13.3-18.6c4-5.9,7.4-11.8,10.3-18.3c4.1-8.9,7.4-18,10.4-27.3
		c3.6-11.4,6.7-23.9,5.4-35.9l0-0.2l0.1-0.2c0.6-2.1,1.8-4.1,3.7-5.3c1.6-1,3.4-1.5,5.3-1c1.9,0.5,2.9,2,3.1,3.9
		c0.1,1.5-0.2,3.4-0.4,4.9c-1.8,9.5-4.1,20.9-6.8,30C91.8,66.1,83.3,83.8,73.9,100.3L73.9,100.3z M197,32.7c-0.9,2-2.1,3.9-3.4,5.7
		c-1.4,1.8-2.9,3.5-4.7,4.9c-1.4,1.1-3.1,2.2-5,2.5c-2.2,0.4-3.8-0.6-3.7-2.9c0-1.9,2-5.1,3-6.7c1.3-2.2,2.9-4.7,4.7-6.6
		c1.7-1.9,4.4-4.5,7.1-4.9c2-0.4,3.2,0.7,3.3,2.6C198.3,29.1,197.7,31,197,32.7L197,32.7z M255,67.9c-0.6,1.4-1.4,2.9-1.6,3.3
		c-1.9,3.8-3.8,7.5-5.8,11.2c-1.7,3.3-3.4,6.7-5,10.1c-0.9,2-2.3,5-2.6,7.2l0,0.1l0,0.1c0.1,1.5,1.3,2,2.7,1.8
		c4.1-0.7,6.8-5.3,8.3-8.6c0.4-0.8,0.8-1.7,1.2-2.6c0.3-0.6,0.5-1.3,0.8-1.9c1.9-4.2,4.1-8.4,6.4-12.5c1-1.9,4.1-9,6-12.3
		c-0.8,5.7-0.9,13.5,4,16.8c6.5,4.4,17.3-2.2,22.6-5.8c5.7-3.9,19-12.7,20-19.6c0.1-0.9,0.3-1.8,0.3-2.7c0-0.6-0.1-1.4-0.7-1.8
		c-1.3-0.6-2.8,1.5-3.5,2.2c-5,5.7-10.7,10.2-16.9,14.6c-2.5,1.7-13.4,9.7-16.7,7.7c-3-1.8-1-12.2-0.5-14.8c0.4-2,1.4-5.6-0.4-7.1
		c0.3-0.4,0.5-0.9,0.9-1.3c4.8-5.2,12.9-15.3,19.3-18.2c0.9-0.4,5.6-2.5,6.5-1.4c1,1.1-1.5,5.9-2.1,7c-0.8,1.5-6.2,9.2-8.3,11
		c0.1-0.7,0.4-1.8,0.5-2.1c1.3-4.3-5.1-4.2-6,2c-0.4,2.8,0,7.4,3.9,7.4c6,0,11.4-8.8,14-13.3c2.3-4,7.5-13.2,4.3-17.4
		c-1.6-2.1-4.6-2.2-7-1.9c-6.9,0.9-14.1,6.8-19.7,12.5c1.3-2.4,2.5-4.7,3.6-7.1c1.1-2.3,2.4-4.7,3.5-7c0.2-0.4,0.3-0.7,0.5-1.1
		c0.6-1.4,0.9-2.8,1.3-4.3l0.1-0.3l-0.1-0.3c0-1.5-1.2-2.2-2.7-2c-1.3,0.2-2.5,1-3.4,1.8l-0.1,0.1l-0.1,0.1
		c-0.9,1.6-1.7,3.5-2.6,5.2c-2.7,5.7-6.1,11.1-9.1,16.7c-0.6-5.5-2.9-10.4-10.1-9.3c-8.7,1.4-18.7,13.3-22.2,20.7
		c-1.1,2.2-3.1,7.7-1.5,9.9c2.3,3.1,7.9,0.1,10.2-1.7c1.2-0.9,2.2-2.1,2.6-3.5c0.3-1,0.2-2.4-0.8-3c-1.2-0.7-2.5,0.3-3.3,1.2
		c-0.3,0.4-1.7,1.4-2.4,1.4c0,0,0,0,0,0c0-0.1,0.1-0.3,0.1-0.5c2.8-5.3,7.4-12.7,12.8-15.7c1.6-0.9,4.3-2.3,5.6-0.2
		c0.4,0.7,0.7,1.5,0.8,2.3c-0.3,4.1-1,10.1-3.6,13.6c-4.4,1.5-5.6,4.6-8.3,7.9c-5.5,6.6-11.2,12.8-17.8,18.4
		c-5.3,4.5-11,8.4-16.8,12.2c0.5-2.8,0.9-5.5,1.3-8.3c0.2-1.4,0.4-3,0.9-4.4c0.5-1.4,1.4-2.8,2.1-4c1.8-3.1,3.6-6.2,5.3-9.3
		c1.7-3.2,3.3-6.5,4.2-10c0.9-3.6,2.5-10.2-0.4-13.1c-1.5-1.5-3.7-1.6-5.7-1.2c-5.8,1-11.7,4.9-16.2,8.5
		c-6.1,4.8-11.5,10.2-16.2,16.3c-2.2,2.8-4.4,5.9-6.1,9c-2.9,3.4-6,6.6-9.3,9.7c-2.1,2-7.8,7.3-10.8,7.8c-0.4,0.1-1,0.1-1.3-0.1
		c-0.6-0.4-0.4-2-0.3-2.6c0.4-2.2,1.4-4.7,2.3-6.7c1.5-3.5,3.4-6.9,5.2-10.3c2.9-5.2,5.9-10.4,8.9-15.5c0.7-1.2,1.9-3.2,1.7-4.7
		c-0.2-1.4-1.2-2.1-2.6-1.9c-1.1,0.2-2.2,1-3,1.6c-0.7,0.5-1.3,1.2-1.8,1.8c-0.6,0.7-1.2,1.3-1.6,2.1c-0.5,0.8-1,1.6-1.4,2.4
		c-0.4,0.7-0.8,1.4-1.2,2c-4.2,6.7-8.6,13.2-13.1,19.8c-2.3,3.4-4.9,7.1-7.7,10.1c-1.5,1.6-3.5,3.2-5.7,3.6c-2,0.4-2.4-1.1-2.6-2.7
		c-0.4-3.3,0-7,0.5-10.2c0.5-3.3,1.1-6.5,1.6-9.8c0.5-3,0.8-6.4,0.4-9.4c-0.4-2.9-2.2-4.1-5.1-3.5c-2.1,0.4-4.5,2.1-6,3.4
		c-2.3,1.9-4.5,4-6.4,6.2c-1.5,1.7-2.9,3.6-4.2,5.4c-0.6,0.9-1.3,1.8-2,2.6c0.4-2,0.6-4.1,0.5-6.1c-0.2-2-0.9-4.1-2.7-5.2
		c-2-1.2-4.5-0.8-6.5-0.1C100.1,70,77.8,102.9,72,113c-0.8,1.4-1.1,3-0.5,4.5c0.5,1.3,1.6,2.2,3.1,1.9c2.7-0.5,4.9-4.9,6-7.1
		c1.5-2.8,3.2-5.5,4.8-8.2c2.3-3.7,4.7-7.3,7.2-10.8c2.7-3.9,11.7-16.3,16.2-17.9c0.4-0.1,1-0.3,1.4-0.1c1.5,0.8,0.1,6.6-0.2,7.8
		c-0.8,3.3-2.2,6.6-3.3,9.8c-0.2,0.7-0.6,1.4-0.9,2.1c-0.7,1.6-1.5,3.1-2.2,4.7c-0.7,1.6-1.5,3.1-2.2,4.7c-0.3,0.7-0.8,1.6-1,2.3
		c-0.3,1.2-0.3,2.4,0.4,3.4c0.8,1.1,2,1.2,3.1,0.7l0.2,0l0.1-0.1c2-1.1,5.6-7.7,6.8-9.7c3.6-6.3,7.2-12,11.6-17.8
		c1.5-1.9,3-3.9,4.6-5.7c1.2-1.4,5.2-6.1,7.3-7c0,0.1,0,0.2,0,0.3c0.1,1,0,2.1-0.1,3c-0.1,1-0.2,2-0.4,3c-0.5,3.4-1.1,6.7-1.6,10.1
		c-0.4,3-0.7,6-0.6,9c0,2.5,0.4,5.3,1.9,7.4c1.5,2.2,4,2.6,6.5,2.2c5.1-0.9,10.1-5.5,13.7-9.3c-0.5,2.7-0.6,5.6,1.3,7.1
		c1.3,1.1,3.2,1.1,4.8,0.8c6.7-1.2,14.1-7.7,18.7-12.2c1-1,2-2,3-3c0.2,1.3,0.7,2.6,1.7,3.6c2.2,2.4,5.5,2.6,8.6,2
		c5.8-1,11.6-4.5,16.4-8c-0.1,1-0.3,2-0.4,3c-0.2,1.3-0.2,2.7-0.2,4c0,1.2,0,2.7-0.1,3.9c-4.7,3.3-9.5,6.2-14.4,9.3
		c-4.4,2.8-8.7,5.6-12.6,9.1c-6.2,5.7-11.9,12.7-14,20.8c-0.8,3.1-0.8,6.2,0.2,9.2c0.9,2.8,2.6,5.1,5.2,6.7c2.7,1.6,5.7,1.9,8.8,1.4
		c2.9-0.5,5.6-1.8,8.1-3.3c5.8-3.4,10.5-7.9,14.2-13.3c3.6-5.4,6.5-11.2,8.2-17.5c1.6-6,2.4-12.1,3.1-18.2
		c16.5-8.3,29-18.9,40.2-33.3C254.8,68.2,254.9,68.1,255,67.9L255,67.9z M207,105.3c-0.6,6.8-2.8,14.4-5.5,20.4
		c-2.7,6.2-6.9,13-13,16.6c-3.4,2-10.1,4.6-13.6,1.6c-2.2-1.9-1.9-5.3-1.3-7.7c1.8-6.9,7.2-13,12.4-17.7
		C192.4,112.9,200,109.6,207,105.3L207,105.3z M210.6,77c-4,3.8-10.1,8.9-15.8,9.9c-1.3,0.2-3.1,0.4-4.2-0.6c-1-0.9-0.8-2.6-0.5-3.7
		c0.6-2.3,1.4-4.3,2.7-6.3c2.4-3.6,4.7-7.4,7.4-10.7c3.8-4.7,8.4-8.4,13.4-11.9c2.4-1.7,5.1-2.9,8.1-3.4c0.4-0.1,1.9-0.3,2.2,0.1
		c0.1,0.2,0,0.7,0,0.9C221.4,60.4,215.4,68.9,210.6,77z"/>
	<path class="st2" d="M116.8,177.9l3.3,7.6l3.3-7.6h1.7v8.9h-1v-8.2l-3.5,8.2h-0.9l-3.6-8.1v8.1h-1v-8.9H116.8L116.8,177.9z
		 M127.9,181.8h4.7v0.9h-4.7v3.2h4.9v0.9h-6v-8.9h6v0.9h-5V181.8L127.9,181.8z M135.4,183.3v3.5h-1v-8.9h4.4c0.9,0,1.5,0.2,1.9,0.6
		c0.4,0.4,0.6,1,0.6,1.9c0,1.1-0.2,1.8-0.7,2.3c-0.4,0.4-1.3,0.6-2.4,0.6H135.4L135.4,183.3z M135.4,178.7v3.7h2.5
		c0.9,0,1.5-0.1,1.8-0.4c0.3-0.2,0.5-0.8,0.5-1.5c0-0.7-0.1-1.1-0.3-1.4c-0.2-0.3-0.6-0.4-1.3-0.4H135.4L135.4,178.7z M143.7,181.8
		h4.7v0.9h-4.7v3.2h4.9v0.9h-6v-8.9h6v0.9h-5V181.8L143.7,181.8z M150.4,177.9h1.3l3.2,3.9h0.9v-3.9h1v3.9h0.9l3.2-3.9h1.3l-3.5,4.3
		l4.2,4.6h-1.5l-3.6-4.1h-0.9v4.1h-1v-4.1h-0.9l-3.6,4.1h-1.5l4.2-4.6L150.4,177.9L150.4,177.9z M163.5,186.7l3.4-8.9h1.5l3.5,8.9
		h-1.1l-0.7-1.8h-4.7l-0.7,1.8H163.5L163.5,186.7z M169.7,184l-2.1-5.5l-2.1,5.5H169.7L169.7,184z M181.1,177.9l3.3,7.6l3.3-7.6h1.7
		v8.9h-1v-8.2l-3.5,8.2H184l-3.6-8.1v8.1h-1v-8.9H181.1L181.1,177.9z M190.7,186.7l3.4-8.9h1.5l3.5,8.9H198l-0.7-1.8h-4.7l-0.7,1.8
		H190.7L190.7,186.7z M196.9,184l-2.1-5.5l-2.1,5.5H196.9L196.9,184z M200.2,177.9h5.8v0.9h-4.7v8h-1V177.9L200.2,177.9z
		 M205.6,186.7h1.1l0.7-1.8h4.7l0.7,1.8h1.1l-3.5-8.9H209L205.6,186.7L205.6,186.7z M211.8,184h-4.1l2.1-5.5L211.8,184L211.8,184z
		 M217.1,182.6v-0.9h2.1c0.7,0,1.2-0.1,1.5-0.3c0.2-0.2,0.4-0.7,0.4-1.3c0-0.6-0.2-1-0.5-1.2c-0.4-0.2-1-0.3-1.9-0.3
		c-0.9,0-1.6,0.1-1.9,0.4c-0.3,0.2-0.5,0.7-0.5,1.4h-1c0-0.6,0.1-1,0.2-1.4c0.1-0.4,0.4-0.6,0.7-0.8c0.3-0.2,0.7-0.3,1-0.4
		c0.4-0.1,0.9-0.1,1.5-0.1c1.2,0,2.1,0.2,2.6,0.5c0.5,0.3,0.8,0.9,0.8,1.7c0,0.7-0.1,1.2-0.4,1.5c-0.2,0.3-0.6,0.5-1.2,0.6
		c0.7,0.1,1.1,0.3,1.3,0.6c0.2,0.3,0.4,0.9,0.4,1.6c0,0.9-0.3,1.5-0.8,1.9c-0.6,0.4-1.5,0.6-2.8,0.6c-1.4,0-2.4-0.2-2.9-0.5
		c-0.5-0.3-0.7-1-0.7-1.9v-0.3h1v0.3c0,0.7,0.2,1.1,0.5,1.3c0.3,0.2,1,0.3,2.1,0.3c1,0,1.7-0.1,2-0.4c0.3-0.3,0.5-0.7,0.5-1.3
		c0-0.5-0.2-0.9-0.5-1.2c-0.3-0.3-0.8-0.4-1.5-0.4H217.1L217.1,182.6z M224.7,177.9v8.2l5.3-8.2h1.7v8.9h-1v-8.1l-5.3,8.1h-1.6v-8.9
		H224.7L224.7,177.9z M234.4,181.8h5.5v-3.9h1v8.9h-1v-4.1h-5.5v4.1h-1v-8.9h1V181.8L234.4,181.8z M243.7,177.9v8.9h-1v-8.9H243.7
		L243.7,177.9z M246.5,182.6v3.2h2.9c0.8,0,1.4-0.1,1.7-0.3c0.3-0.2,0.5-0.6,0.5-1.3c0-0.7-0.1-1.1-0.3-1.3
		c-0.2-0.2-0.7-0.3-1.4-0.3H246.5L246.5,182.6z M246.5,178.7v3.1h3c0.7,0,1.2-0.1,1.4-0.3c0.3-0.2,0.4-0.7,0.4-1.3
		c0-0.5-0.1-0.9-0.3-1.1c-0.2-0.2-0.6-0.3-1.1-0.3H246.5L246.5,178.7z M245.4,186.7v-8.9h4.5c0.8,0,1.4,0.2,1.8,0.5
		c0.4,0.3,0.6,0.9,0.6,1.7c0,0.6-0.1,1-0.2,1.3c-0.1,0.3-0.5,0.5-0.9,0.7c0.6,0.1,1,0.4,1.2,0.7c0.2,0.3,0.3,0.8,0.3,1.4
		c0,0.8-0.2,1.5-0.5,1.9c-0.4,0.4-1,0.7-1.8,0.7H245.4z"/>
	<path class="st2" d="M349.6,163.3l6.2-13.1l3.1,0l6.6,13.5l-2.6,0l-1.3-2.7l-8.2,0l-1.4,2.7l-5.3,0l-7.8-6l-1.3,0v6l-2.4,0v-13.5
		l2.4,0v5.7l1.3,0l7-5.7l3.4,0l-8.1,6.5L349.6,163.3L349.6,163.3z M223.9,155.9l1.3,0l7-5.7l3.4,0l-8.1,6.5l9,7l-3.5,0l-7.8-6
		l-1.3,0v6l-2.4,0v-13.5l2.4,0V155.9L223.9,155.9z M236.8,156.9c0-0.8,0-1.6,0.1-2.5c0.1-0.6,0.2-1.3,0.5-1.8
		c0.2-0.5,0.5-0.9,0.9-1.3c0.4-0.4,0.9-0.6,1.4-0.8c0.6-0.2,1.3-0.3,1.9-0.4c0.8-0.1,1.7-0.1,2.6-0.1c1.2,0,2.4,0,3.6,0.3
		c0.8,0.2,1.6,0.5,2.3,1.1c0.6,0.6,1,1.3,1.2,2.1c0.2,1.1,0.3,2.3,0.3,3.4c0,1.1,0,2.3-0.3,3.4c-0.2,0.8-0.6,1.6-1.2,2.1
		c-0.6,0.6-1.4,0.9-2.3,1.1c-1.1,0.2-2.4,0.3-3.6,0.3c-1.2,0-2.4,0-3.6-0.3c-0.8-0.2-1.6-0.5-2.3-1.1c-0.6-0.6-1-1.3-1.2-2.1
		C236.9,159.3,236.8,158,236.8,156.9L236.8,156.9z M265,158.8l2.4,0v0.3c0,1.4-0.3,2.9-1.5,3.7c-1.3,0.9-3.9,1-5.5,1
		c-1.1,0-2.2,0-3.3-0.3c-0.8-0.2-1.5-0.5-2.2-1c-0.7-0.6-1-1.3-1.3-2.1c-0.3-1.1-0.3-2.3-0.3-3.4c0-1.4,0.1-3,0.7-4.3
		c0.4-1,1.2-1.7,2.2-2.1c1.2-0.5,2.9-0.5,4.2-0.5c1.1,0,2.3,0,3.3,0.2c0.7,0.1,1.5,0.4,2.1,0.9c0.5,0.4,0.8,0.8,1,1.4
		c0.2,0.6,0.3,1.3,0.4,2l0,0.3l-2.4,0l0-0.2c-0.1-0.4-0.1-1-0.3-1.4c-0.1-0.3-0.3-0.6-0.6-0.8c-0.3-0.3-0.8-0.4-1.2-0.5
		c-0.7-0.1-1.6-0.1-2.3-0.1c-0.9,0-2.1,0.1-2.9,0.4c-0.6,0.3-1,0.8-1.3,1.4c-0.4,1-0.4,2.3-0.4,3.3c0,0.7,0,1.5,0.1,2.2
		c0.1,0.5,0.2,1,0.4,1.4c0.2,0.4,0.4,0.6,0.8,0.8c0.4,0.2,0.8,0.3,1.3,0.4c0.6,0.1,1.3,0.1,2,0.1c1,0,3,0,3.8-0.6
		c0.7-0.5,0.8-1.6,0.8-2.4V158.8L265,158.8z M278.4,161l5.9-10.8l3.5,0v13.5l-2.4,0v-11.2l-6,11.2l-1.9,0l-6-11.1v11.1l-2.4,0v-13.5
		l3.5,0L278.4,161L278.4,161z M292.8,155.9l8.6,0v1.8l-8.6,0v4.2l9,0v1.8l-11.4,0v-13.5l11.4,0v1.8l-9,0V155.9L292.8,155.9z
		 M310.6,152v11.7l-2.4,0V152l-5.5,0v-1.8l13.4,0v1.8L310.6,152L310.6,152z M319.9,161.7l9.3-11.5l3.4,0v13.5l-2.4,0v-11.4
		l-9.3,11.4l-3.4,0v-13.5l2.4,0V161.7L319.9,161.7z M239.2,156.9c0,0.7,0,1.3,0.1,2c0,0.5,0.1,0.9,0.3,1.4c0.1,0.3,0.3,0.7,0.5,0.9
		c0.2,0.2,0.6,0.4,0.9,0.5c0.4,0.2,0.9,0.3,1.3,0.3c0.7,0.1,1.3,0.1,2,0.1c0.7,0,1.3,0,2-0.1c0.4,0,0.9-0.1,1.3-0.3
		c0.3-0.1,0.6-0.3,0.8-0.5c0.2-0.2,0.4-0.6,0.5-0.9c0.1-0.4,0.2-0.9,0.3-1.4c0-0.7,0.1-1.3,0.1-2c0-0.7,0-1.3-0.1-2
		c0-0.5-0.1-0.9-0.3-1.4c-0.1-0.3-0.2-0.7-0.5-0.9c-0.2-0.2-0.6-0.4-0.8-0.5c-0.4-0.2-0.9-0.3-1.3-0.3c-0.7-0.1-1.3-0.1-2-0.1
		c-0.7,0-1.3,0-2,0.1c-0.5,0-0.9,0.1-1.3,0.3c-0.3,0.1-0.6,0.3-0.9,0.5c-0.2,0.2-0.4,0.6-0.5,0.9c-0.1,0.4-0.2,0.9-0.3,1.4
		C239.3,155.6,239.2,156.3,239.2,156.9L239.2,156.9z M360.8,159.3l-3.3-7.1l-3.3,7.1L360.8,159.3z"/>
	<path class="st2" d="M11.8,152H2.4v11.7H0v-13.5h14.2v13.5h-2.4V152L11.8,152z M27.9,161h-8.2l-1.4,2.7h-2.6l6.4-13.5h3.1l6.6,13.5
		h-2.6L27.9,161L27.9,161z M35.6,158.6v5.1h-2.4v-13.5h8.4c1.2,0,2.7,0.1,3.6,0.9c0.9,0.7,1.1,1.9,1.1,3c0,1.3-0.2,2.7-1.3,3.5
		c-1.1,0.9-3.2,1-4.6,1H35.6L35.6,158.6z M58,151.7h1.9c1.5,0,3.3,0.2,4.5,1.2c1.2,0.9,1.5,2.4,1.5,3.9c0,1.4-0.3,3-1.5,3.9
		c-1.2,0.9-3,1.1-4.5,1.1H58v1.9h-2.4v-1.9h-1.8c-1.5,0-3.3-0.2-4.5-1.1c-1.2-0.9-1.5-2.5-1.5-3.9c0-1.4,0.3-3,1.5-3.9
		c1.2-1,3.1-1.2,4.5-1.2h1.8v-1.5H58V151.7L58,151.7z M74.4,158.9l4.6-8.7h2.6l-6.1,11.4c-0.7,1.4-1.8,2.2-3.4,2.2h-2v-1.8h1.4
		c0.3,0,0.9,0,1.2-0.2c0.2-0.2,0.4-0.5,0.6-0.7l-6.4-10.8h2.7L74.4,158.9L74.4,158.9z M92.3,161l5.9-10.8h3.5v13.5h-2.4v-11.2
		l-6,11.2h-1.9l-6-11.1v11.1h-2.4v-13.5h3.5L92.3,161L92.3,161z M106.8,155.9h8.6v1.8h-8.6v4.2h9v1.8h-11.4v-13.5h11.4v1.8h-9V155.9
		L106.8,155.9z M120.3,158.6v5.1h-2.4v-13.5h8.4c1.2,0,2.7,0.1,3.6,0.9c0.9,0.7,1.1,1.9,1.1,3c0,1.3-0.2,2.7-1.3,3.5
		c-1.1,0.9-3.2,1-4.6,1H120.3L120.3,158.6z M135.3,150.2v13.5h-2.4v-13.5H135.3L135.3,150.2z M147.5,158.6h-4.8c-0.4,0-0.7,0-1.1,0
		c-0.5,0-1.2,0.1-1.6,0.5c-0.4,0.4-0.5,1.3-0.5,1.9c0,0,0,0.1,0,0.1l0,0.3h0v2.4h-2.3v-2.4h0l0-0.3c0-0.1,0-0.2,0-0.3
		c0-1.1,0.2-2.2,1-3c-0.1,0-0.1-0.1-0.2-0.1c-1.1-0.8-1.3-2.2-1.3-3.5c0-1.1,0.2-2.3,1.1-3c0.9-0.8,2.5-0.9,3.6-0.9h8.4v13.5h-2.4
		V158.6L147.5,158.6z M27,159.2l-3.3-7.1l-3.3,7.1H27L27,159.2z M35.6,152v4.8h4.2c0.9,0,2.4-0.1,3.2-0.5c0.7-0.4,0.8-1.3,0.8-2
		c0-0.6-0.1-1.4-0.5-1.9c-0.4-0.4-1.6-0.5-2.1-0.5H35.6L35.6,152z M58,153.5v6.5h1.7c0.9,0,2.2-0.1,2.9-0.8c0.7-0.6,0.8-1.6,0.8-2.5
		c0-0.9-0.2-1.9-0.9-2.5c-0.7-0.7-2-0.8-2.9-0.8H58L58,153.5z M55.6,160v-6.5h-1.7c-0.9,0-2.2,0.1-3,0.8c-0.7,0.6-0.8,1.7-0.8,2.5
		c0,0.9,0.1,1.9,0.8,2.5c0.7,0.7,2,0.8,3,0.8H55.6L55.6,160z M120.3,152v4.8h4.2c0.9,0,2.4-0.1,3.2-0.5c0.7-0.4,0.8-1.3,0.8-2
		c0-0.6-0.1-1.4-0.5-1.9c-0.4-0.4-1.6-0.5-2.1-0.5H120.3L120.3,152z M147.5,156.8V152h-5.7c-0.6,0-1.7,0-2.1,0.5
		c-0.4,0.4-0.5,1.3-0.5,1.9c0,0.7,0.1,1.6,0.8,2c0.6,0.3,1.4,0.4,2,0.5H147.5z"/>
</g>
</svg>
